<svg xmlns="http://www.w3.org/2000/svg" version="1.1" xmlns:xlink="http://www.w3.org/1999/xlink" xmlns:svgjs="http://svgjs.dev/svgjs" viewBox="0 0 13.616919070172441 3.1275895620272807"><g transform="matrix(1,0,0,1,2.880416458750352,0.5629410212480157)"><rect width="13.616919070172441" height="13.616919070172441" x="-2.880416458750352" y="-5.807605775320596" fill="#000000"></rect><g><path d=" M 0.440185546875 0.2922363281250002 L 0.314208984375 0.017578125000000222 L 0.76025390625 0.017578125000000222 L 1.29345703125 1.1066894531250002 L 0.815185546875 1.1066894531250002 L 0.734619140625 0.9323730468750002 L 0.305419921875 0.9323730468750002 L 0.2255859375 1.1066894531250002 L 0.040283203125 1.1066894531250002 L 0.440185546875 0.2922363281250002 M 0.65771484375 0.7646484375000002 L 0.52001953125 0.4658203125000002 L 0.383056640625 0.7646484375000002 L 0.65771484375 0.7646484375000002 M 1.4501953125 0.017578125000000222 L 2.3701171875 0.017578125000000222 L 2.3701171875 0.18530273437500022 L 1.874267578125 0.18530273437500022 L 1.87353515625 0.4790039062500002 L 2.2529296875 0.4790039062500002 L 2.2529296875 0.6467285156250002 L 1.87353515625 0.6467285156250002 L 1.87353515625 0.9382324218750002 L 2.3701171875 0.9382324218750002 L 2.3701171875 1.1059570312500002 L 1.4501953125 1.1059570312500002 L 1.4501953125 0.017578125000000222 M 2.53125 0.5595703125000002 Q 2.53125 0.4357910156250002 2.57080078125 0.3328857421875002 Q 2.6103515625 0.22998046875000022 2.688720703125 0.15600585937500022 Q 2.76708984375 0.08203125000000022 2.88427734375 0.04101562500000022 Q 3.00146484375 2.220446049250313e-16 3.15673828125 2.220446049250313e-16 Q 3.31201171875 2.220446049250313e-16 3.42919921875 0.04101562500000022 Q 3.54638671875 0.08203125000000022 3.624755859375 0.15600585937500022 Q 3.703125 0.22998046875000022 3.74267578125 0.3328857421875002 Q 3.7822265625 0.4357910156250002 3.7822265625 0.5595703125000002 Q 3.7822265625 0.6848144531250002 3.74267578125 0.7888183593750002 Q 3.703125 0.8928222656250002 3.624755859375 0.9667968750000002 Q 3.54638671875 1.0407714843750002 3.42919921875 1.0817871093750002 Q 3.31201171875 1.1228027343750002 3.15673828125 1.1228027343750002 Q 3.00146484375 1.1228027343750002 2.88427734375 1.0817871093750002 Q 2.76708984375 1.0407714843750002 2.688720703125 0.9667968750000002 Q 2.6103515625 0.8928222656250002 2.57080078125 0.7888183593750002 Q 2.53125 0.6848144531250002 2.53125 0.5595703125000002 M 3.15673828125 0.9711914062500002 Q 3.20068359375 0.9711914062500002 3.234375 0.9558105468750002 Q 3.26806640625 0.9404296875000002 3.290771484375 0.8957519531250002 Q 3.3134765625 0.8510742187500002 3.3251953125 0.7705078125000002 Q 3.3369140625 0.6899414062500002 3.3369140625 0.5595703125000002 Q 3.3369140625 0.4306640625000002 3.3251953125 0.3508300781250002 Q 3.3134765625 0.2709960937500002 3.290771484375 0.22705078125000022 Q 3.26806640625 0.18310546875000022 3.234375 0.16772460937500022 Q 3.20068359375 0.15234375000000022 3.15673828125 0.15234375000000022 Q 3.11279296875 0.15234375000000022 3.0787353515625 0.16772460937500022 Q 3.044677734375 0.18310546875000022 3.02197265625 0.22705078125000022 Q 2.999267578125 0.2709960937500002 2.987548828125 0.3508300781250002 Q 2.975830078125 0.4306640625000002 2.975830078125 0.5595703125000002 Q 2.975830078125 0.6899414062500002 2.987548828125 0.7705078125000002 Q 2.999267578125 0.8510742187500002 3.02197265625 0.8957519531250002 Q 3.044677734375 0.9404296875000002 3.0787353515625 0.9558105468750002 Q 3.11279296875 0.9711914062500002 3.15673828125 0.9711914062500002 M 4.004150390625 0.017578125000000222 L 4.269287109375 0.017578125000000222 L 4.9599609375 0.5976562500000002 L 4.960693359375 0.017578125000000222 L 5.121826171875 0.017578125000000222 L 5.121826171875 1.1059570312500002 L 4.856689453125 1.1059570312500002 L 4.165283203125 0.5280761718750002 L 4.165283203125 1.1059570312500002 L 4.004150390625 1.1059570312500002 L 4.004150390625 0.017578125000000222 M 5.29833984375 0.017578125000000222 L 5.761962890625 0.017578125000000222 L 5.947998046875 0.7170410156250002 L 6.0673828125 0.3046875000000002 L 5.978759765625 0.017578125000000222 L 6.4423828125 0.017578125000000222 L 6.61376953125 0.7170410156250002 L 6.7939453125 0.017578125000000222 L 6.985107421875 0.016845703125000222 L 6.6591796875 1.1059570312500002 L 6.314208984375 1.1052246093750002 L 6.153076171875 0.5830078125000002 L 5.993408203125 1.1059570312500002 L 5.6484375 1.1052246093750002 L 5.29833984375 0.017578125000000222 M 7.14111328125 0.017578125000000222 L 7.565185546875 0.017578125000000222 L 7.564453125 1.1059570312500002 L 7.14111328125 1.1059570312500002 L 7.14111328125 0.017578125000000222 M 7.850830078125 0.017578125000000222 L 8.478515625 0.017578125000000222 Q 8.60009765625 0.017578125000000222 8.6912841796875 0.04321289062500022 Q 8.782470703125 0.06884765625000022 8.8436279296875 0.11499023437500022 Q 8.90478515625 0.16113281250000022 8.935546875 0.22558593750000022 Q 8.96630859375 0.2900390625000002 8.96630859375 0.3676757812500002 Q 8.96630859375 0.4636230468750002 8.9208984375 0.5379638671875002 Q 8.87548828125 0.6123046875000002 8.7861328125 0.6562500000000002 L 9.0146484375 1.1066894531250002 L 8.536376953125 1.1066894531250002 L 8.363525390625 0.7111816406250002 L 8.274169921875 0.7111816406250002 L 8.274169921875 1.1059570312500002 L 7.850830078125 1.1059570312500002 L 7.850830078125 0.017578125000000222 M 8.2998046875 0.5786132812500002 Q 8.351806640625 0.5786132812500002 8.392822265625 0.5639648437500002 Q 8.433837890625 0.5493164062500002 8.46240234375 0.5225830078125002 Q 8.490966796875 0.4958496093750002 8.50634765625 0.4588623046875002 Q 8.521728515625 0.4218750000000002 8.521728515625 0.3779296875000002 Q 8.521728515625 0.3339843750000002 8.50634765625 0.2969970703125002 Q 8.490966796875 0.2600097656250002 8.46240234375 0.23327636718750022 Q 8.433837890625 0.20654296875000022 8.392822265625 0.19189453125000022 Q 8.351806640625 0.17724609375000022 8.2998046875 0.17724609375000022 L 8.27490234375 0.17724609375000022 L 8.274169921875 0.5786132812500002 L 8.2998046875 0.5786132812500002 M 9.22412109375 0.017578125000000222 L 10.14404296875 0.017578125000000222 L 10.14404296875 0.18530273437500022 L 9.648193359375 0.18530273437500022 L 9.6474609375 0.4790039062500002 L 10.02685546875 0.4790039062500002 L 10.02685546875 0.6467285156250002 L 9.6474609375 0.6467285156250002 L 9.6474609375 0.9382324218750002 L 10.14404296875 0.9382324218750002 L 10.14404296875 1.1059570312500002 L 9.22412109375 1.1059570312500002 L 9.22412109375 0.017578125000000222" fill="#ffffff" fill-rule="nonzero"></path></g><g><path d=" M 0.0315 1.7317075195312497 Q 0.0315 1.6829575195312496 0.048375 1.6360825195312496 Q 0.06525 1.5892075195312496 0.0975 1.5505825195312497 Q 0.12975 1.5119575195312498 0.177 1.4890825195312498 Q 0.22425 1.4662075195312498 0.28425 1.4662075195312498 Q 0.3555 1.4662075195312498 0.406125 1.4988325195312497 Q 0.45675 1.5314575195312496 0.48075 1.5824575195312498 L 0.4395 1.6079575195312497 Q 0.42225 1.5727075195312497 0.396 1.5520825195312498 Q 0.36975 1.5314575195312496 0.340125 1.5224575195312497 Q 0.3105 1.5134575195312496 0.28125 1.5134575195312496 Q 0.23325 1.5134575195312496 0.1965 1.5325825195312497 Q 0.15975 1.5517075195312497 0.134625 1.5835825195312496 Q 0.1095 1.6154575195312497 0.09675 1.6548325195312497 Q 0.084 1.6942075195312496 0.084 1.7347075195312498 Q 0.084 1.7789575195312497 0.099 1.8194575195312497 Q 0.114 1.8599575195312497 0.14100000000000001 1.8910825195312497 Q 0.168 1.9222075195312498 0.204375 1.9405825195312496 Q 0.24075 1.9589575195312496 0.28350000000000003 1.9589575195312496 Q 0.3135 1.9589575195312496 0.34500000000000003 1.9484575195312497 Q 0.3765 1.9379575195312497 0.403875 1.9162075195312498 Q 0.43125 1.8944575195312496 0.44775000000000004 1.8599575195312497 L 0.49125 1.8824575195312496 Q 0.47475 1.9222075195312498 0.44025000000000003 1.9499575195312497 Q 0.40575 1.9777075195312497 0.363375 1.9919575195312498 Q 0.321 2.00620751953125 0.2805 2.00620751953125 Q 0.22575 2.00620751953125 0.18 1.9825825195312496 Q 0.13425 1.9589575195312496 0.100875 1.9195825195312497 Q 0.0675 1.8802075195312498 0.0495 1.8310825195312497 Q 0.0315 1.7819575195312498 0.0315 1.7317075195312497 M 0.7972338867187501 2.00545751953125 Q 0.74098388671875 2.00545751953125 0.6952338867187501 1.9829575195312497 Q 0.64948388671875 1.9604575195312497 0.6164838867187501 1.9218325195312498 Q 0.5834838867187501 1.8832075195312497 0.56548388671875 1.8348325195312496 Q 0.54748388671875 1.7864575195312498 0.54748388671875 1.7354575195312498 Q 0.54748388671875 1.6822075195312496 0.5662338867187501 1.6338325195312497 Q 0.58498388671875 1.5854575195312497 0.6191088867187501 1.5475825195312498 Q 0.65323388671875 1.5097075195312497 0.6989838867187501 1.4875825195312498 Q 0.7447338867187501 1.4654575195312498 0.7979838867187501 1.4654575195312498 Q 0.85423388671875 1.4654575195312498 0.8999838867187501 1.4887075195312498 Q 0.9457338867187501 1.5119575195312498 0.97835888671875 1.5509575195312497 Q 1.01098388671875 1.5899575195312496 1.0289838867187502 1.6379575195312497 Q 1.04698388671875 1.6859575195312497 1.04698388671875 1.7362075195312496 Q 1.04698388671875 1.7894575195312497 1.0282338867187502 1.8378325195312497 Q 1.0094838867187501 1.8862075195312498 0.97573388671875 1.9240825195312496 Q 0.94198388671875 1.9619575195312497 0.89623388671875 1.9837075195312497 Q 0.8504838867187501 2.00545751953125 0.7972338867187501 2.00545751953125 M 0.59998388671875 1.7354575195312498 Q 0.59998388671875 1.7789575195312497 0.61423388671875 1.8190825195312497 Q 0.6284838867187501 1.8592075195312496 0.6547338867187501 1.8903325195312497 Q 0.6809838867187501 1.9214575195312498 0.71735888671875 1.9398325195312498 Q 0.7537338867187501 1.9582075195312496 0.7972338867187501 1.9582075195312496 Q 0.84298388671875 1.9582075195312496 0.8793588867187501 1.9390825195312498 Q 0.9157338867187501 1.9199575195312497 0.9416088867187501 1.8880825195312496 Q 0.9674838867187501 1.8562075195312497 0.9809838867187501 1.8164575195312498 Q 0.9944838867187501 1.7767075195312496 0.9944838867187501 1.7354575195312498 Q 0.9944838867187501 1.6919575195312497 0.9802338867187501 1.6522075195312498 Q 0.96598388671875 1.6124575195312496 0.9393588867187501 1.5809575195312497 Q 0.91273388671875 1.5494575195312497 0.8767338867187501 1.5314575195312496 Q 0.84073388671875 1.5134575195312496 0.7972338867187501 1.5134575195312496 Q 0.7522338867187501 1.5134575195312496 0.7158588867187501 1.5322075195312497 Q 0.67948388671875 1.5509575195312497 0.6536088867187501 1.5828325195312498 Q 0.6277338867187501 1.6147075195312497 0.6138588867187501 1.6544575195312496 Q 0.59998388671875 1.6942075195312496 0.59998388671875 1.7354575195312498 M 1.62521630859375 2.0017075195312497 L 1.62521630859375 1.5682075195312497 L 1.4324663085937501 1.9049575195312496 L 1.3994663085937502 1.9049575195312496 L 1.2059663085937502 1.5682075195312497 L 1.2059663085937502 2.0017075195312497 L 1.1534663085937502 2.0017075195312497 L 1.1534663085937502 1.4692075195312497 L 1.20746630859375 1.4692075195312497 L 1.4152163085937501 1.8337075195312498 L 1.62446630859375 1.4692075195312497 L 1.67771630859375 1.4692075195312497 L 1.67771630859375 2.0017075195312497 L 1.62521630859375 2.0017075195312497 M 2.2904769287109374 2.0017075195312497 L 2.2904769287109374 1.5682075195312497 L 2.0977269287109377 1.9049575195312496 L 2.0647269287109378 1.9049575195312496 L 1.8712269287109378 1.5682075195312497 L 1.8712269287109378 2.0017075195312497 L 1.8187269287109378 2.0017075195312497 L 1.8187269287109378 1.4692075195312497 L 1.8727269287109376 1.4692075195312497 L 2.0804769287109375 1.8337075195312498 L 2.289726928710938 1.4692075195312497 L 2.3429769287109377 1.4692075195312497 L 2.3429769287109377 2.0017075195312497 L 2.2904769287109374 2.0017075195312497 M 2.8417375488281253 1.9552075195312497 L 2.8417375488281253 2.0017075195312497 L 2.483987548828125 2.0017075195312497 L 2.483987548828125 1.4692075195312497 L 2.834987548828125 1.4692075195312497 L 2.834987548828125 1.5157075195312497 L 2.5364875488281253 1.5157075195312497 L 2.5364875488281253 1.7077075195312497 L 2.7967375488281254 1.7077075195312497 L 2.7967375488281254 1.7519575195312498 L 2.5364875488281253 1.7519575195312498 L 2.5364875488281253 1.9552075195312497 L 2.8417375488281253 1.9552075195312497 M 2.948244140625 2.0017075195312497 L 2.948244140625 1.4692075195312497 L 3.173244140625 1.4692075195312497 Q 3.207744140625 1.4692075195312497 3.236244140625 1.4834575195312496 Q 3.264744140625 1.4977075195312497 3.286119140625 1.5220825195312497 Q 3.3074941406250002 1.5464575195312498 3.3191191406250002 1.5760825195312496 Q 3.3307441406250002 1.6057075195312498 3.3307441406250002 1.6364575195312496 Q 3.3307441406250002 1.6747075195312497 3.316119140625 1.7084575195312497 Q 3.301494140625 1.7422075195312496 3.2748691406250003 1.7654575195312496 Q 3.248244140625 1.7887075195312496 3.212244140625 1.7962075195312497 L 3.3427441406250002 2.0017075195312497 L 3.2834941406250002 2.0017075195312497 L 3.158244140625 1.8052075195312498 L 3.000744140625 1.8052075195312498 L 3.000744140625 2.0017075195312497 L 2.948244140625 2.0017075195312497 M 3.000744140625 1.7587075195312498 L 3.174744140625 1.7587075195312498 Q 3.206244140625 1.7587075195312498 3.229494140625 1.7414575195312496 Q 3.252744140625 1.7242075195312496 3.265494140625 1.6960825195312497 Q 3.278244140625 1.6679575195312497 3.278244140625 1.6364575195312496 Q 3.278244140625 1.6042075195312497 3.263619140625 1.5768325195312496 Q 3.2489941406250002 1.5494575195312497 3.224619140625 1.5325825195312497 Q 3.200244140625 1.5157075195312497 3.170244140625 1.5157075195312497 L 3.000744140625 1.5157075195312497 L 3.000744140625 1.7587075195312498 M 3.4102554931640623 1.7317075195312497 Q 3.4102554931640623 1.6829575195312496 3.4271304931640625 1.6360825195312496 Q 3.4440054931640622 1.5892075195312496 3.4762554931640626 1.5505825195312497 Q 3.5085054931640625 1.5119575195312498 3.5557554931640625 1.4890825195312498 Q 3.6030054931640625 1.4662075195312498 3.6630054931640625 1.4662075195312498 Q 3.7342554931640626 1.4662075195312498 3.7848804931640623 1.4988325195312497 Q 3.8355054931640624 1.5314575195312496 3.8595054931640624 1.5824575195312498 L 3.818255493164062 1.6079575195312497 Q 3.8010054931640624 1.5727075195312497 3.7747554931640623 1.5520825195312498 Q 3.7485054931640622 1.5314575195312496 3.7188804931640624 1.5224575195312497 Q 3.6892554931640626 1.5134575195312496 3.6600054931640624 1.5134575195312496 Q 3.6120054931640624 1.5134575195312496 3.5752554931640623 1.5325825195312497 Q 3.5385054931640623 1.5517075195312497 3.513380493164062 1.5835825195312496 Q 3.4882554931640626 1.6154575195312497 3.4755054931640625 1.6548325195312497 Q 3.4627554931640625 1.6942075195312496 3.4627554931640625 1.7347075195312498 Q 3.4627554931640625 1.7789575195312497 3.4777554931640626 1.8194575195312497 Q 3.4927554931640623 1.8599575195312497 3.5197554931640624 1.8910825195312497 Q 3.5467554931640626 1.9222075195312498 3.5831304931640626 1.9405825195312496 Q 3.6195054931640622 1.9589575195312496 3.6622554931640625 1.9589575195312496 Q 3.6922554931640623 1.9589575195312496 3.7237554931640626 1.9484575195312497 Q 3.7552554931640625 1.9379575195312497 3.7826304931640626 1.9162075195312498 Q 3.8100054931640623 1.8944575195312496 3.8265054931640625 1.8599575195312497 L 3.8700054931640624 1.8824575195312496 Q 3.8535054931640627 1.9222075195312498 3.8190054931640622 1.9499575195312497 Q 3.7845054931640623 1.9777075195312497 3.7421304931640624 1.9919575195312498 Q 3.6997554931640626 2.00620751953125 3.6592554931640624 2.00620751953125 Q 3.6045054931640625 2.00620751953125 3.5587554931640626 1.9825825195312496 Q 3.5130054931640626 1.9589575195312496 3.4796304931640623 1.9195825195312497 Q 3.4462554931640623 1.8802075195312498 3.4282554931640625 1.8310825195312497 Q 3.4102554931640623 1.7819575195312498 3.4102554931640623 1.7317075195312497 M 4.325236083984375 1.9552075195312497 L 4.325236083984375 2.0017075195312497 L 3.967486083984375 2.0017075195312497 L 3.967486083984375 1.4692075195312497 L 4.318486083984375 1.4692075195312497 L 4.318486083984375 1.5157075195312497 L 4.019986083984375 1.5157075195312497 L 4.019986083984375 1.7077075195312497 L 4.280236083984375 1.7077075195312497 L 4.280236083984375 1.7519575195312498 L 4.019986083984375 1.7519575195312498 L 4.019986083984375 1.9552075195312497 L 4.325236083984375 1.9552075195312497" fill="#dddee0" fill-rule="nonzero"></path></g><g clip-path="url(#SvgjsClipPath1002)"><g clip-path="url(#SvgjsClipPath1000742b048c-ce5e-4eea-bead-a720a3aed90d)"><path d=" M -2.322066834734627 0.34734493124937416 L -1.9765404480553188 0.14772102940461387 L -1.648717710163469 0.3372721655599601 C -1.4850960766248957 0.4347384406912374 -1.2812298800783664 0.4347384406912374 -1.1176082465397987 0.33727216555996287 L -0.7897855086479488 0.14772102940461387 L -0.4442591219686405 0.34734493124937416 L -0.9912408224362363 0.6632634915082799 C -1.2327427741206203 0.8070412703785615 -1.5335831825826416 0.8070412703785615 -1.7750851342670257 0.6632634915082799 Z" fill="#51a8db" transform="matrix(1,0,0,1,0,0)" fill-rule="evenodd"></path></g><g clip-path="url(#SvgjsClipPath1000742b048c-ce5e-4eea-bead-a720a3aed90d)"><path d=" M -1.338598621059072 2.0505580387321736 L -0.9933774697036877 1.8509341368874164 L -0.9933774697036877 1.4724423352245692 C -0.9959879726768539 1.2819961069559629 -0.8940530744357276 1.1054261165543844 -0.7278227378918498 1.0124527020746457 L -0.3999999999999999 0.8232068012432234 L -0.3999999999999999 0.4242642328776296 L -0.9466764651436774 0.7398775578126141 C -1.1920444089200426 0.8770393912800887 -1.3425020790218167 1.1376451999298889 -1.3385986210590777 1.4187209182143625 Z" fill="#3361e1" transform="matrix(1,0,0,1,0,0)" fill-rule="evenodd"></path></g><g clip-path="url(#SvgjsClipPath1000742b048c-ce5e-4eea-bead-a720a3aed90d)"><path d=" M -2.366325956703262 0.4242642328776296 L -2.366325956703262 0.8232068012432234 L -2.0385032188114125 1.0127579373985696 C -1.8723699959558444 1.1056789931031632 -1.770450634931788 1.282104921496523 -1.77294848699958 1.472442335224572 L -1.77294848699958 1.8509341368874193 L -1.4277273356441902 2.0505580387321762 L -1.4277273356441902 1.4184156828904413 C -1.4239365974989857 1.137448773351248 -1.5743787131280382 0.8769870731617034 -1.8196494915596015 0.7398775578126141 Z" fill="#3361e1" transform="matrix(1,0,0,1,0,0)" fill-rule="evenodd"></path></g><g clip-path="url(#SvgjsClipPath1000742b048c-ce5e-4eea-bead-a720a3aed90d)"><path d=" M -1.8379636109948911 0.07751690490263641 L -1.8568882010780345 0.08850537656381693 L -1.6047638235187525 0.2292188608916959 C -1.5702707471866235 0.24932035103464428 -1.533340979145486 0.26491291976312564 -1.4948791069069638 0.2756146301277878 C -1.4579763390903473 0.28570537833349174 -1.4198942974251962 0.29083772896221977 -1.3816368017320277 0.29087639632387097 C -1.3433793060388648 0.29083772896221977 -1.305297264373708 0.28570537833349174 -1.2683944965570972 0.2756146301277878 C -1.230244458026477 0.26498997201186764 -1.1936205749171547 0.24949919792361297 -1.1594254859170694 0.22952409621561715 L -0.9085220496534723 0.0854530233245992 L -0.91157440289269 0.0836216113810691 C -1.0509428466532358 -0.001194027841292071 -1.2105637893298096 -0.046950625675925436 -1.373700683310065 -0.04885051920092587 C -1.536974449364208 -0.04902912723645392 -1.6973045587549271 -0.00538897911826746 -1.8379636109948911 0.0775169049026336 Z" fill="#3361e1" transform="matrix(1,0,0,1,0,0)" fill-rule="evenodd"></path></g><g clip-path="url(#SvgjsClipPath1000742b048c-ce5e-4eea-bead-a720a3aed90d)"><path d=" M -0.4076308830980442 0.9773506398236582 L -0.4076308830980442 0.9553736965012971 L -0.6557872014463422 1.1034128286032965 C -0.6903773534727682 1.1231496437312904 -0.7222823700894605 1.1472579360300765 -0.7507153871859773 1.1751431297248855 C -0.7780160891011603 1.2023939145507283 -0.8015265784972805 1.2331936823185738 -0.8206142763640336 1.266713726901379 C -0.8397438011950686 1.2998091241983183 -0.8543229792925096 1.3353330370272998 -0.8639576923609076 1.3723251489782677 C -0.8738820067329185 1.4105987426837343 -0.8788067464652869 1.4499966605426988 -0.8786089879091483 1.4895355133641823 L -0.8786089879091483 1.7792038357658273 L -0.8755566346699306 1.7773724238222972 C -0.7325083839855517 1.6989699646190435 -0.6130880828600638 1.583660335818261 -0.5297250126666984 1.4434449794520117 C -0.44803809731855315 1.3018106200334583 -0.4058725419957756 1.1408436125887518 -0.4076308830980442 0.9773506398236582 Z" fill="#51a8db" transform="matrix(1,0,0,1,0,0)" fill-rule="evenodd"></path></g><g clip-path="url(#SvgjsClipPath1000742b048c-ce5e-4eea-bead-a720a3aed90d)"><path d=" M -2.3586950736052232 0.9773506398236582 L -2.3586950736052232 0.9553736965012971 L -2.11053875525692 1.1034128286032965 C -2.0760513719243114 1.1233051514221688 -2.0441651170881623 1.1473992668128286 -2.0156105695172846 1.1751431297248855 C -1.9883098676021018 1.2023939145507283 -1.9647993782059816 1.2331936823185738 -1.9457116803392285 1.266713726901379 C -1.9267090223910968 1.2998713253769079 -1.9121369636027672 1.3353778911569154 -1.9023682643423543 1.3723251489782677 C -1.8926008812956951 1.410628602444316 -1.8876786630020728 1.4500063487932981 -1.8877169687941135 1.4895355133641823 L -1.8877169687941135 1.7792038357658273 L -1.8907693220333315 1.7773724238222972 C -2.03322652034094 1.6984077378687465 -2.1519910069933976 1.5828046838689798 -2.2347695320930363 1.4425292734802508 C -2.3169378686981053 1.3013435983844803 -2.3597332321102535 1.1407028746403611 -2.3586950736052232 0.9773506398236582 Z" fill="#51a8db" transform="matrix(1,0,0,1,0,0)" fill-rule="evenodd"></path></g></g></g><defs><clipPath id="SvgjsClipPath1002"><path d=" M -2.366325956703262 -0.04885051920092587 h 1.9663259567032623 v 2.0994085579331014 h -1.9663259567032623 Z"></path></clipPath><clipPath id="SvgjsClipPath1000742b048c-ce5e-4eea-bead-a720a3aed90d"><path d=" M -2.366325956703262 -0.04885051920092587 L -0.3999999999999999 -0.04885051920092587 L -0.3999999999999999 2.0505580387321753 L -2.3663259567032626 2.0505580387321753 Z"></path></clipPath></defs></svg>
