<svg xmlns="http://www.w3.org/2000/svg" version="1.1" xmlns:xlink="http://www.w3.org/1999/xlink" xmlns:svgjs="http://svgjs.dev/svgjs" viewBox="0 0 22.6 3.0"><g transform="matrix(1,0,0,1,2.880416458750352,0.5629410212480157)"><rect width="25.5" height="4" x="-2.880416458750352" y="-0.5629410212480157" fill="#0A0F1E"></rect><g transform="translate(0,-0.0837) scale(1.9284)"><path d=" M 0.440185546875 0.2922363281250002 L 0.314208984375 0.017578125000000222 L 0.76025390625 0.017578125000000222 L 1.29345703125 1.1066894531250002 L 0.815185546875 1.1066894531250002 L 0.734619140625 0.9323730468750002 L 0.305419921875 0.9323730468750002 L 0.2255859375 1.1066894531250002 L 0.040283203125 1.1066894531250002 L 0.440185546875 0.2922363281250002 M 0.65771484375 0.7646484375000002 L 0.52001953125 0.4658203125000002 L 0.383056640625 0.7646484375000002 L 0.65771484375 0.7646484375000002 M 1.4501953125 0.017578125000000222 L 2.3701171875 0.017578125000000222 L 2.3701171875 0.18530273437500022 L 1.874267578125 0.18530273437500022 L 1.87353515625 0.4790039062500002 L 2.2529296875 0.4790039062500002 L 2.2529296875 0.6467285156250002 L 1.87353515625 0.6467285156250002 L 1.87353515625 0.9382324218750002 L 2.3701171875 0.9382324218750002 L 2.3701171875 1.1059570312500002 L 1.4501953125 1.1059570312500002 L 1.4501953125 0.017578125000000222 M 2.53125 0.5595703125000002 Q 2.53125 0.4357910156250002 2.57080078125 0.3328857421875002 Q 2.6103515625 0.22998046875000022 2.688720703125 0.15600585937500022 Q 2.76708984375 0.08203125000000022 2.88427734375 0.04101562500000022 Q 3.00146484375 2.220446049250313e-16 3.15673828125 2.220446049250313e-16 Q 3.31201171875 2.220446049250313e-16 3.42919921875 0.04101562500000022 Q 3.54638671875 0.08203125000000022 3.624755859375 0.15600585937500022 Q 3.703125 0.22998046875000022 3.74267578125 0.3328857421875002 Q 3.7822265625 0.4357910156250002 3.7822265625 0.5595703125000002 Q 3.7822265625 0.6848144531250002 3.74267578125 0.7888183593750002 Q 3.703125 0.8928222656250002 3.624755859375 0.9667968750000002 Q 3.54638671875 1.0407714843750002 3.42919921875 1.0817871093750002 Q 3.31201171875 1.1228027343750002 3.15673828125 1.1228027343750002 Q 3.00146484375 1.1228027343750002 2.88427734375 1.0817871093750002 Q 2.76708984375 1.0407714843750002 2.688720703125 0.9667968750000002 Q 2.6103515625 0.8928222656250002 2.57080078125 0.7888183593750002 Q 2.53125 0.6848144531250002 2.53125 0.5595703125000002 M 3.15673828125 0.9711914062500002 Q 3.20068359375 0.9711914062500002 3.234375 0.9558105468750002 Q 3.26806640625 0.9404296875000002 3.290771484375 0.8957519531250002 Q 3.3134765625 0.8510742187500002 3.3251953125 0.7705078125000002 Q 3.3369140625 0.6899414062500002 3.3369140625 0.5595703125000002 Q 3.3369140625 0.4306640625000002 3.3251953125 0.3508300781250002 Q 3.3134765625 0.2709960937500002 3.290771484375 0.22705078125000022 Q 3.26806640625 0.18310546875000022 3.234375 0.16772460937500022 Q 3.20068359375 0.15234375000000022 3.15673828125 0.15234375000000022 Q 3.11279296875 0.15234375000000022 3.0787353515625 0.16772460937500022 Q 3.044677734375 0.18310546875000022 3.02197265625 0.22705078125000022 Q 2.999267578125 0.2709960937500002 2.987548828125 0.3508300781250002 Q 2.975830078125 0.4306640625000002 2.975830078125 0.5595703125000002 Q 2.975830078125 0.6899414062500002 2.987548828125 0.7705078125000002 Q 2.999267578125 0.8510742187500002 3.02197265625 0.8957519531250002 Q 3.044677734375 0.9404296875000002 3.0787353515625 0.9558105468750002 Q 3.11279296875 0.9711914062500002 3.15673828125 0.9711914062500002 M 4.004150390625 0.017578125000000222 L 4.269287109375 0.017578125000000222 L 4.9599609375 0.5976562500000002 L 4.960693359375 0.017578125000000222 L 5.121826171875 0.017578125000000222 L 5.121826171875 1.1059570312500002 L 4.856689453125 1.1059570312500002 L 4.165283203125 0.5280761718750002 L 4.165283203125 1.1059570312500002 L 4.004150390625 1.1059570312500002 L 4.004150390625 0.017578125000000222 M 5.29833984375 0.017578125000000222 L 5.761962890625 0.017578125000000222 L 5.947998046875 0.7170410156250002 L 6.0673828125 0.3046875000000002 L 5.978759765625 0.017578125000000222 L 6.4423828125 0.017578125000000222 L 6.61376953125 0.7170410156250002 L 6.7939453125 0.017578125000000222 L 6.985107421875 0.016845703125000222 L 6.6591796875 1.1059570312500002 L 6.314208984375 1.1052246093750002 L 6.153076171875 0.5830078125000002 L 5.993408203125 1.1059570312500002 L 5.6484375 1.1052246093750002 L 5.29833984375 0.017578125000000222 M 7.14111328125 0.017578125000000222 L 7.565185546875 0.017578125000000222 L 7.564453125 1.1059570312500002 L 7.14111328125 1.1059570312500002 L 7.14111328125 0.017578125000000222 M 7.850830078125 0.017578125000000222 L 8.478515625 0.017578125000000222 Q 8.60009765625 0.017578125000000222 8.6912841796875 0.04321289062500022 Q 8.782470703125 0.06884765625000022 8.8436279296875 0.11499023437500022 Q 8.90478515625 0.16113281250000022 8.935546875 0.22558593750000022 Q 8.96630859375 0.2900390625000002 8.96630859375 0.3676757812500002 Q 8.96630859375 0.4636230468750002 8.9208984375 0.5379638671875002 Q 8.87548828125 0.6123046875000002 8.7861328125 0.6562500000000002 L 9.0146484375 1.1066894531250002 L 8.536376953125 1.1066894531250002 L 8.363525390625 0.7111816406250002 L 8.274169921875 0.7111816406250002 L 8.274169921875 1.1059570312500002 L 7.850830078125 1.1059570312500002 L 7.850830078125 0.017578125000000222 M 8.2998046875 0.5786132812500002 Q 8.351806640625 0.5786132812500002 8.392822265625 0.5639648437500002 Q 8.433837890625 0.5493164062500002 8.46240234375 0.5225830078125002 Q 8.490966796875 0.4958496093750002 8.50634765625 0.4588623046875002 Q 8.521728515625 0.4218750000000002 8.521728515625 0.3779296875000002 Q 8.521728515625 0.3339843750000002 8.50634765625 0.2969970703125002 Q 8.490966796875 0.2600097656250002 8.46240234375 0.23327636718750022 Q 8.433837890625 0.20654296875000022 8.392822265625 0.19189453125000022 Q 8.351806640625 0.17724609375000022 8.2998046875 0.17724609375000022 L 8.27490234375 0.17724609375000022 L 8.274169921875 0.5786132812500002 L 8.2998046875 0.5786132812500002 M 9.22412109375 0.017578125000000222 L 10.14404296875 0.017578125000000222 L 10.14404296875 0.18530273437500022 L 9.648193359375 0.18530273437500022 L 9.6474609375 0.4790039062500002 L 10.02685546875 0.4790039062500002 L 10.02685546875 0.6467285156250002 L 9.6474609375 0.6467285156250002 L 9.6474609375 0.9382324218750002 L 10.14404296875 0.9382324218750002 L 10.14404296875 1.1059570312500002 L 9.22412109375 1.1059570312500002 L 9.22412109375 0.017578125000000222" fill="#ffffff" fill-rule="nonzero"></path></g><g clip-path="url(#SvgjsClipPath1002)"><g clip-path="url(#SvgjsClipPath1000742b048c-ce5e-4eea-bead-a720a3aed90d)"><path d=" M -2.322066834734627 0.34734493124937416 L -1.9765404480553188 0.14772102940461387 L -1.648717710163469 0.3372721655599601 C -1.4850960766248957 0.4347384406912374 -1.2812298800783664 0.4347384406912374 -1.1176082465397987 0.33727216555996287 L -0.7897855086479488 0.14772102940461387 L -0.4442591219686405 0.34734493124937416 L -0.9912408224362363 0.6632634915082799 C -1.2327427741206203 0.8070412703785615 -1.5335831825826416 0.8070412703785615 -1.7750851342670257 0.6632634915082799 Z" fill="#51a8db" transform="matrix(1,0,0,1,0,0)" fill-rule="evenodd"></path></g><g clip-path="url(#SvgjsClipPath1000742b048c-ce5e-4eea-bead-a720a3aed90d)"><path d=" M -1.338598621059072 2.0505580387321736 L -0.9933774697036877 1.8509341368874164 L -0.9933774697036877 1.4724423352245692 C -0.9959879726768539 1.2819961069559629 -0.8940530744357276 1.1054261165543844 -0.7278227378918498 1.0124527020746457 L -0.3999999999999999 0.8232068012432234 L -0.3999999999999999 0.4242642328776296 L -0.9466764651436774 0.7398775578126141 C -1.1920444089200426 0.8770393912800887 -1.3425020790218167 1.1376451999298889 -1.3385986210590777 1.4187209182143625 Z" fill="#3361e1" transform="matrix(1,0,0,1,0,0)" fill-rule="evenodd"></path></g><g clip-path="url(#SvgjsClipPath1000742b048c-ce5e-4eea-bead-a720a3aed90d)"><path d=" M -2.366325956703262 0.4242642328776296 L -2.366325956703262 0.8232068012432234 L -2.0385032188114125 1.0127579373985696 C -1.8723699959558444 1.1056789931031632 -1.770450634931788 1.282104921496523 -1.77294848699958 1.472442335224572 L -1.77294848699958 1.8509341368874193 L -1.4277273356441902 2.0505580387321762 L -1.4277273356441902 1.4184156828904413 C -1.4239365974989857 1.137448773351248 -1.5743787131280382 0.8769870731617034 -1.8196494915596015 0.7398775578126141 Z" fill="#3361e1" transform="matrix(1,0,0,1,0,0)" fill-rule="evenodd"></path></g><g clip-path="url(#SvgjsClipPath1000742b048c-ce5e-4eea-bead-a720a3aed90d)"><path d=" M -1.8379636109948911 0.07751690490263641 L -1.8568882010780345 0.08850537656381693 L -1.6047638235187525 0.2292188608916959 C -1.5702707471866235 0.24932035103464428 -1.533340979145486 0.26491291976312564 -1.4948791069069638 0.2756146301277878 C -1.4579763390903473 0.28570537833349174 -1.4198942974251962 0.29083772896221977 -1.3816368017320277 0.29087639632387097 C -1.3433793060388648 0.29083772896221977 -1.305297264373708 0.28570537833349174 -1.2683944965570972 0.2756146301277878 C -1.230244458026477 0.26498997201186764 -1.1936205749171547 0.24949919792361297 -1.1594254859170694 0.22952409621561715 L -0.9085220496534723 0.0854530233245992 L -0.91157440289269 0.0836216113810691 C -1.0509428466532358 -0.001194027841292071 -1.2105637893298096 -0.046950625675925436 -1.373700683310065 -0.04885051920092587 C -1.536974449364208 -0.04902912723645392 -1.6973045587549271 -0.00538897911826746 -1.8379636109948911 0.0775169049026336 Z" fill="#3361e1" transform="matrix(1,0,0,1,0,0)" fill-rule="evenodd"></path></g><g clip-path="url(#SvgjsClipPath1000742b048c-ce5e-4eea-bead-a720a3aed90d)"><path d=" M -0.4076308830980442 0.9773506398236582 L -0.4076308830980442 0.9553736965012971 L -0.6557872014463422 1.1034128286032965 C -0.6903773534727682 1.1231496437312904 -0.7222823700894605 1.1472579360300765 -0.7507153871859773 1.1751431297248855 C -0.7780160891011603 1.2023939145507283 -0.8015265784972805 1.2331936823185738 -0.8206142763640336 1.266713726901379 C -0.8397438011950686 1.2998091241983183 -0.8543229792925096 1.3353330370272998 -0.8639576923609076 1.3723251489782677 C -0.8738820067329185 1.4105987426837343 -0.8788067464652869 1.4499966605426988 -0.8786089879091483 1.4895355133641823 L -0.8786089879091483 1.7792038357658273 L -0.8755566346699306 1.7773724238222972 C -0.7325083839855517 1.6989699646190435 -0.6130880828600638 1.583660335818261 -0.5297250126666984 1.4434449794520117 C -0.44803809731855315 1.3018106200334583 -0.4058725419957756 1.1408436125887518 -0.4076308830980442 0.9773506398236582 Z" fill="#51a8db" transform="matrix(1,0,0,1,0,0)" fill-rule="evenodd"></path></g><g clip-path="url(#SvgjsClipPath1000742b048c-ce5e-4eea-bead-a720a3aed90d)"><path d=" M -2.3586950736052232 0.9773506398236582 L -2.3586950736052232 0.9553736965012971 L -2.11053875525692 1.1034128286032965 C -2.0760513719243114 1.1233051514221688 -2.0441651170881623 1.1473992668128286 -2.0156105695172846 1.1751431297248855 C -1.9883098676021018 1.2023939145507283 -1.9647993782059816 1.2331936823185738 -1.9457116803392285 1.266713726901379 C -1.9267090223910968 1.2998713253769079 -1.9121369636027672 1.3353778911569154 -1.9023682643423543 1.3723251489782677 C -1.8926008812956951 1.410628602444316 -1.8876786630020728 1.4500063487932981 -1.8877169687941135 1.4895355133641823 L -1.8877169687941135 1.7792038357658273 L -1.8907693220333315 1.7773724238222972 C -2.03322652034094 1.6984077378687465 -2.1519910069933976 1.5828046838689798 -2.2347695320930363 1.4425292734802508 C -2.3169378686981053 1.3013435983844803 -2.3597332321102535 1.1407028746403611 -2.3586950736052232 0.9773506398236582 Z" fill="#51a8db" transform="matrix(1,0,0,1,0,0)" fill-rule="evenodd"></path></g></g></g><defs><clipPath id="SvgjsClipPath1002"><path d=" M -2.366325956703262 -0.04885051920092587 h 1.9663259567032623 v 2.0994085579331014 h -1.9663259567032623 Z"></path></clipPath><clipPath id="SvgjsClipPath1000742b048c-ce5e-4eea-bead-a720a3aed90d"><path d=" M -2.366325956703262 -0.04885051920092587 L -0.3999999999999999 -0.04885051920092587 L -0.3999999999999999 2.0505580387321753 L -2.3663259567032626 2.0505580387321753 Z"></path></clipPath></defs></svg>
